<svg id="Capa_1" data-name="Capa 1" xmlns="http://www.w3.org/2000/svg" xmlns:xlink="http://www.w3.org/1999/xlink" viewBox="0 0 165.35 40"><defs><style>.cls-1,.cls-2,.cls-4{fill:#14427b;}.cls-1,.cls-2,.cls-3{fill-rule:evenodd;}.cls-1{opacity:0.1;}.cls-3{fill:url(#Degradado_sin_nombre_2);}.cls-5{fill:#96af23;}</style><linearGradient id="Degradado_sin_nombre_2" x1="14.34" y1="21.46" x2="41.62" y2="21.46" gradientUnits="userSpaceOnUse"><stop offset="0" stop-color="#c6d200"/><stop offset="0.58" stop-color="#c6d200"/><stop offset="0.72" stop-color="#8a9b22"/><stop offset="1" stop-color="#8a9b22"/></linearGradient></defs><path class="cls-1" d="M33.47,38.28c10,0,18.12.86,18.12,1.93s-8.12,1.93-18.12,1.93-18.13-.86-18.13-1.93,8.12-1.93,18.13-1.93" transform="translate(-4 -2.14)"/><path class="cls-2" d="M22.83,2.14a18.45,18.45,0,0,1,8.25,1.94,17.77,17.77,0,0,0-3.89-.43,17.57,17.57,0,1,0,4.62,34.53,18.46,18.46,0,0,1-9,2.32A19,19,0,0,1,4,21.32,19,19,0,0,1,22.83,2.14" transform="translate(-4 -2.14)"/><path class="cls-3" d="M36.47,34.54a19.38,19.38,0,0,1-3.11,2.68l-19-7.64.6-1.31Zm3.87-6.17a18.71,18.71,0,0,1-1.71,3.37L14.84,26.46l.36-1.39Zm1.25-5.52a18.48,18.48,0,0,1-.49,3.08L14.84,23.45,15,22.06Zm-.39-5.72a19.52,19.52,0,0,1,.42,3.08L15,21l-.16-1.4Zm-2.34-5.86a18.75,18.75,0,0,1,1.63,3.41L15.2,18l-.36-1.39ZM33.74,5.69a19.31,19.31,0,0,1,3,2.75L14.94,14.79l-.6-1.3Z" transform="translate(-4 -2.14)"/><path class="cls-4" d="M48.81,8H59.39V9.78H50.74v4.43h8V15.9h-8v4.94h8.8v1.74H48.81Z" transform="translate(-4 -2.14)"/><path class="cls-4" d="M62.13,8H65l4.19,12.32L73.31,8h2.81V22.58H74.23V14c0-.3,0-.79,0-1.48s0-1.42,0-2.21l-4.16,12.3h-2L64,10.28v.45c0,.35,0,.9,0,1.63s0,1.27,0,1.61v8.61H62.13Z" transform="translate(-4 -2.14)"/><path class="cls-4" d="M79.3,8h6.52a4.37,4.37,0,0,1,3.12,1.1,4,4,0,0,1,1.19,3.08,4.49,4.49,0,0,1-1.06,3,4,4,0,0,1-3.25,1.26H81.27v6.17h-2ZM87,10a4.29,4.29,0,0,0-1.78-.3h-3.9v5.05h3.9a3.66,3.66,0,0,0,2.14-.57,2.25,2.25,0,0,0,.83-2A2.21,2.21,0,0,0,87,10Z" transform="translate(-4 -2.14)"/><path class="cls-4" d="M94,17.87a4.09,4.09,0,0,0,.57,2,3.69,3.69,0,0,0,3.33,1.45,5.7,5.7,0,0,0,2-.32,2.23,2.23,0,0,0,1.7-2.2,1.93,1.93,0,0,0-.72-1.7,7,7,0,0,0-2.29-.86l-1.91-.45a8.47,8.47,0,0,1-2.65-1,3.08,3.08,0,0,1-1.35-2.73,4.25,4.25,0,0,1,1.33-3.23,5.21,5.21,0,0,1,3.74-1.26,6.36,6.36,0,0,1,3.79,1.11A4,4,0,0,1,103,12.28h-1.85a3.84,3.84,0,0,0-.61-1.8A3.47,3.47,0,0,0,97.6,9.34a3.31,3.31,0,0,0-2.41.73,2.34,2.34,0,0,0-.73,1.71,1.69,1.69,0,0,0,.86,1.57,12.93,12.93,0,0,0,2.57.79l2,.47a5.85,5.85,0,0,1,2.21.92,3.49,3.49,0,0,1,1.35,3A3.72,3.72,0,0,1,101.71,22a7.47,7.47,0,0,1-4,1,5.85,5.85,0,0,1-4.15-1.39,4.74,4.74,0,0,1-1.47-3.74Z" transform="translate(-4 -2.14)"/><path class="cls-4" d="M106.41,8H117V9.78h-8.65v4.43h8V15.9h-8v4.94h8.8v1.74H106.41Z" transform="translate(-4 -2.14)"/><path class="cls-4" d="M120,8h6.63a6.42,6.42,0,0,1,2.7.49,3.44,3.44,0,0,1,2,3.44,3.86,3.86,0,0,1-.54,2.14,3.87,3.87,0,0,1-1.51,1.34,3,3,0,0,1,1.28.91,3.25,3.25,0,0,1,.48,1.84l.07,2a6.34,6.34,0,0,0,.14,1.24,1.21,1.21,0,0,0,.64.89v.33h-2.42a1.76,1.76,0,0,1-.16-.49,10,10,0,0,1-.1-1.15l-.12-2.43a2.06,2.06,0,0,0-1-1.92,4.14,4.14,0,0,0-1.73-.27H122v6.26h-2Zm6.41,6.68a3.65,3.65,0,0,0,2.14-.56,2.28,2.28,0,0,0,.79-2,2.18,2.18,0,0,0-1.1-2.13,3.51,3.51,0,0,0-1.58-.29H122v5Z" transform="translate(-4 -2.14)"/><path class="cls-4" d="M144.69,8V9.74h-4.91V22.58h-2V9.74h-4.91V8Z" transform="translate(-4 -2.14)"/><path class="cls-4" d="M146.69,8h10.58V9.78h-8.65v4.43h8V15.9h-8v4.94h8.8v1.74H146.69Z" transform="translate(-4 -2.14)"/><path class="cls-4" d="M160.06,8h2V20.84h7.31v1.74h-9.29Z" transform="translate(-4 -2.14)"/><path class="cls-5" d="M83.94,26.1h1.64l5.13,8.31V26.1H92V36.39H90.47l-5.2-8.31v8.31H83.94Z" transform="translate(-4 -2.14)"/><path class="cls-5" d="M98.76,29.09a2.89,2.89,0,0,1,1.14,1,3.47,3.47,0,0,1,.5,1.33,9,9,0,0,1,.11,1.65H95.05a3.26,3.26,0,0,0,.54,1.84,1.78,1.78,0,0,0,1.55.69,2,2,0,0,0,1.56-.66,2.12,2.12,0,0,0,.46-.88h1.24a2.64,2.64,0,0,1-.32.93,3.67,3.67,0,0,1-.62.83,2.92,2.92,0,0,1-1.41.75,4,4,0,0,1-1,.11,3.15,3.15,0,0,1-2.36-1,4,4,0,0,1-1-2.86,4.32,4.32,0,0,1,1-2.93,3.17,3.17,0,0,1,2.54-1.13A3.36,3.36,0,0,1,98.76,29.09ZM99.21,32a3.36,3.36,0,0,0-.35-1.31,1.81,1.81,0,0,0-1.72-.91,1.91,1.91,0,0,0-1.44.62,2.37,2.37,0,0,0-.62,1.6Z" transform="translate(-4 -2.14)"/><path class="cls-5" d="M102.36,26.79h1.27v2.1h1.2v1h-1.2v4.89a.54.54,0,0,0,.27.53,1.18,1.18,0,0,0,.49.07h.2l.24,0v1a3,3,0,0,1-.45.09,4.12,4.12,0,0,1-.51,0,1.37,1.37,0,0,1-1.2-.45,2.05,2.05,0,0,1-.31-1.18v-5h-1v-1h1Z" transform="translate(-4 -2.14)"/><path class="cls-5" d="M106.68,28.89l1.44,5.91,1.46-5.91H111l1.47,5.87L114,28.89h1.26l-2.17,7.5h-1.31l-1.53-5.81-1.48,5.81h-1.31l-2.16-7.5Z" transform="translate(-4 -2.14)"/><path class="cls-5" d="M121.89,29.63a3.83,3.83,0,0,1,1,2.85,4.93,4.93,0,0,1-.87,3,3.18,3.18,0,0,1-2.72,1.18,3.07,3.07,0,0,1-2.45-1,4.18,4.18,0,0,1-.9-2.81,4.52,4.52,0,0,1,1-3,3.19,3.19,0,0,1,2.56-1.12A3.4,3.4,0,0,1,121.89,29.63Zm-.79,5a4.71,4.71,0,0,0,.47-2.11,3.82,3.82,0,0,0-.34-1.71,1.85,1.85,0,0,0-1.81-1,1.77,1.77,0,0,0-1.66.88,4.1,4.1,0,0,0-.52,2.13,3.55,3.55,0,0,0,.52,2,1.81,1.81,0,0,0,1.64.8A1.71,1.71,0,0,0,121.1,34.62Z" transform="translate(-4 -2.14)"/><path class="cls-5" d="M124.47,28.89h1.19v1.29a2.93,2.93,0,0,1,.72-.92,1.9,1.9,0,0,1,1.33-.54h.12l.28,0v1.33l-.2,0h-.21a1.79,1.79,0,0,0-1.46.61,2.15,2.15,0,0,0-.51,1.41v4.32h-1.26Z" transform="translate(-4 -2.14)"/><path class="cls-5" d="M129.18,26.1h1.21v6l3.23-3.18h1.61l-2.88,2.79,3.05,4.71h-1.61l-2.36-3.82-1,1v2.82h-1.21Z" transform="translate(-4 -2.14)"/></svg>