<svg id="Capa_1" data-name="Capa 1" xmlns="http://www.w3.org/2000/svg" viewBox="0 0 34.12 45.63"><defs><style>.cls-1{fill:#e1d9a2;}.cls-2{fill:#d8d191;}.cls-3{fill:#0c0c0e;}</style></defs><path class="cls-1" d="M32.53,3.69A14.51,14.51,0,0,0,27.92,32l1,.33v2.34a.49.49,0,0,0,.48.48h6.32a.49.49,0,0,0,.48-.48V32.29l1-.33A14.51,14.51,0,0,0,32.53,3.69Z" transform="translate(-15.47 -1.16)"/><path class="cls-2" d="M36,14a51.31,51.31,0,0,0-12.2,15.78A14.25,14.25,0,0,0,27.92,32l1,.33v2.34a.49.49,0,0,0,.48.48h6.32a.49.49,0,0,0,.48-.48V32.29l1-.33a14.51,14.51,0,0,0,6.2-23.44A55.94,55.94,0,0,0,36,14Z" transform="translate(-15.47 -1.16)"/><path class="cls-3" d="M37.53,38.24h-10a1.4,1.4,0,0,0,0,2.8h10a1.4,1.4,0,0,0,0-2.8Z" transform="translate(-15.47 -1.16)"/><path class="cls-3" d="M32.53,1.16A17.06,17.06,0,0,0,26.15,34l0,2.2a1.4,1.4,0,0,0,1.4,1.4h10a1.4,1.4,0,0,0,1.4-1.4l0-2.2A17.06,17.06,0,0,0,32.53,1.16Zm4.53,30.59-1,.32v2.3a.48.48,0,0,1-.48.47H29.42a.48.48,0,0,1-.47-.47v-2.3L28,31.75a14.26,14.26,0,1,1,9.06,0Z" transform="translate(-15.47 -1.16)"/><path class="cls-3" d="M37.53,41.64h-10a1.4,1.4,0,0,0,0,2.8h1.52a3.75,3.75,0,0,0,7,0h1.52a1.4,1.4,0,1,0,0-2.8Z" transform="translate(-15.47 -1.16)"/><path class="cls-3" d="M42.05,23a1,1,0,0,0-1.37.32,9.41,9.41,0,0,1-2.85,2.94A1,1,0,0,0,38.93,28a11.6,11.6,0,0,0,3.45-3.56A1,1,0,0,0,42.05,23Z" transform="translate(-15.47 -1.16)"/><path class="cls-3" d="M40,9.63a1,1,0,0,0-1.4.12,1,1,0,0,0,.12,1.41,9.46,9.46,0,0,1,3,10,1,1,0,0,0,.68,1.23,1,1,0,0,0,1.23-.67A11.44,11.44,0,0,0,40,9.63Z" transform="translate(-15.47 -1.16)"/><path class="cls-3" d="M37.53,38.24h-10a1.4,1.4,0,0,0,0,2.8h10a1.4,1.4,0,0,0,0-2.8Z" transform="translate(-15.47 -1.16)"/><path class="cls-3" d="M37.53,41.64h-10a1.4,1.4,0,0,0,0,2.8h1.52a3.75,3.75,0,0,0,7,0h1.52a1.4,1.4,0,1,0,0-2.8Z" transform="translate(-15.47 -1.16)"/></svg>