<svg id="Capa_1" data-name="Capa 1" xmlns="http://www.w3.org/2000/svg" viewBox="0 0 65.06 47.95"><defs><style>.cls-1{fill:#e0d9a3;}.cls-2{fill:#b4cd3e;}.cls-3{fill:#0c0c0e;}</style></defs><path class="cls-1" d="M21,41.44c-.48,0-2.31,2.7-2.61,3.31-.68,1.33.08,1.83,1.34,2.22a21.17,21.17,0,0,1,2.16-3.18C22.33,42.78,22.42,41.45,21,41.44Z" transform="translate(-3.47 -12.02)"/><path class="cls-1" d="M25.41,45.44c-1.42.13-3.59,3.13-3.3,3.92a1.9,1.9,0,0,0,2.31,1C24.83,49.74,28.08,45.18,25.41,45.44Z" transform="translate(-3.47 -12.02)"/><path class="cls-1" d="M30.3,49.13c-1.57.11-2.53,1.84-3.37,3A1.87,1.87,0,0,0,28.65,54C29.09,53.46,33.11,48.93,30.3,49.13Z" transform="translate(-3.47 -12.02)"/><path class="cls-1" d="M37.45,56.49A1.64,1.64,0,0,0,39,55.85a11.39,11.39,0,0,1-1.61-1.18A1.53,1.53,0,0,1,37.45,56.49Z" transform="translate(-3.47 -12.02)"/><path class="cls-1" d="M33.07,53.36a21,21,0,0,1-1.79,2.32c.52.88.89,1.21,1.19,1.16.64-.1,2-2.23,1.84-2.94C34.23,53.58,33.11,53.24,33.07,53.36Z" transform="translate(-3.47 -12.02)"/><path class="cls-2" d="M53.74,15.52a.55.55,0,0,0-.71-.2l-5.1,2.95a.55.55,0,0,0-.2.71l11.61,20.1a.53.53,0,0,0,.71.19l5.1-2.94a.55.55,0,0,0,.2-.71Z" transform="translate(-3.47 -12.02)"/><path class="cls-2" d="M24.07,18.15,19,15.21a.53.53,0,0,0-.71.19L6.65,35.5a.55.55,0,0,0,.2.71L12,39.16h0a.48.48,0,0,0,.39,0,.51.51,0,0,0,.32-.24l11.61-20.1A.55.55,0,0,0,24.07,18.15Z" transform="translate(-3.47 -12.02)"/><path class="cls-1" d="M39.5,32.07,35,32.69C33,37.73,29.1,39.44,24,37.62a1.56,1.56,0,0,1-1.06-2.07l3.44-8.9a1.53,1.53,0,0,1,.58-.73l1.46-1-2.84-2.07-9,15.56,1.29,1.42c2-3,7.29-1.32,7.42,2.48,2.42-.16,4.26,1.32,4.19,3.77,3-.54,5.46,1.33,4.76,4.42l.36.07A1.55,1.55,0,0,1,37.45,50a8.62,8.62,0,0,0,4.07,3.66c.7,0,1.14-.8,1.37-1.36a25.3,25.3,0,0,1-5.52-4.42,1.56,1.56,0,0,1,2.28-2.13A23.43,23.43,0,0,0,45.14,50a4.09,4.09,0,0,0,1.54-.33,20,20,0,0,1-6.61-6.14,1.56,1.56,0,0,1,2.5-1.85c1.73,2.33,3.84,4.69,6.65,5.71,1.21.3,2.44-1.39,2.11-2.72C45.78,41.55,42.74,37.09,39.5,32.07Z" transform="translate(-3.47 -12.02)"/><path class="cls-1" d="M36.56,23.15l-7.48,5.07-2.65,6.86c3.36.66,5-1.3,6-4.3a1.55,1.55,0,0,1,1.31-1.05l6.31-.89a1.57,1.57,0,0,1,1.61.82c3.07,4.76,5.82,9,10.55,11.93l2.87-3.66-8.68-15Z" transform="translate(-3.47 -12.02)"/><path class="cls-3" d="M56.44,14a3.64,3.64,0,0,0-5-1.32l-5.1,2.94a3.64,3.64,0,0,0-1.65,4.26L36,20.05a1.51,1.51,0,0,0-.88.31l-4,2.72-4-2.94a3.64,3.64,0,0,0-1.48-4.69l-5.1-2.94a3.64,3.64,0,0,0-5,1.33L4,34a3.63,3.63,0,0,0,1.33,5l5.1,2.94a3.63,3.63,0,0,0,4.47-.66l1.23,1.3c-2.46,3.45-.71,6.5,3,7.54a4.76,4.76,0,0,0,5,3.48,5,5,0,0,0,4.48,3.57c1.72,2.94,4,3.84,6.65,1.78,2.71,1.7,5.54.44,7.05-2.13a5.13,5.13,0,0,0,3.73-3.65,4.6,4.6,0,0,0,4-2.57,5.34,5.34,0,0,0,4.4-6.6l2.41-3.08a3.6,3.6,0,0,0,2.09,1.5A3.64,3.64,0,0,0,61.61,42L66.71,39a3.64,3.64,0,0,0,1.33-5ZM12.66,39a.51.51,0,0,1-.32.24.48.48,0,0,1-.39,0h0l-5.1-2.95a.55.55,0,0,1-.2-.71L18.26,15.4a.53.53,0,0,1,.71-.19l5.1,2.94a.55.55,0,0,1,.2.71Zm7,8c-1.26-.39-2-.89-1.34-2.22.3-.61,2.13-3.31,2.61-3.31,1.45,0,1.36,1.34.89,2.35A21.17,21.17,0,0,0,19.7,47Zm4.72,3.37a1.9,1.9,0,0,1-2.31-1c-.29-.79,1.88-3.79,3.3-3.92C28.08,45.18,24.83,49.74,24.42,50.34ZM28.65,54a1.87,1.87,0,0,1-1.72-1.78c.84-1.21,1.8-2.94,3.37-3C33.11,48.93,29.09,53.46,28.65,54Zm3.82,2.88c-.3,0-.67-.28-1.19-1.16a21,21,0,0,0,1.79-2.32c0-.12,1.16.22,1.24.54C34.48,54.61,33.11,56.74,32.47,56.84Zm5-.35a1.53,1.53,0,0,0-.07-1.82A11.39,11.39,0,0,0,39,55.85,1.64,1.64,0,0,1,37.45,56.49Zm11.77-9.08c-2.81-1-4.92-3.38-6.65-5.71a1.56,1.56,0,0,0-2.5,1.85,20,20,0,0,0,6.61,6.14,4.09,4.09,0,0,1-1.54.33,23.43,23.43,0,0,1-5.49-4.27,1.56,1.56,0,0,0-2.28,2.13,25.3,25.3,0,0,0,5.52,4.42c-.23.56-.67,1.35-1.37,1.36A8.62,8.62,0,0,1,37.45,50a1.55,1.55,0,0,0-2.85.58l-.36-.07c.7-3.09-1.75-5-4.76-4.42.07-2.45-1.77-3.93-4.19-3.77-.13-3.8-5.45-5.49-7.42-2.48l-1.29-1.42,9-15.56,2.84,2.07-1.46,1a1.53,1.53,0,0,0-.58.73l-3.44,8.9A1.56,1.56,0,0,0,24,37.62c5.13,1.82,9,.11,11.07-4.93l4.46-.62c3.24,5,6.28,9.48,11.83,12.62C51.66,46,50.43,47.71,49.22,47.41Zm3-5.82c-4.73-2.91-7.48-7.17-10.55-11.93a1.57,1.57,0,0,0-1.61-.82l-6.31.89a1.55,1.55,0,0,0-1.31,1.05c-1,3-2.64,5-6,4.3l2.65-6.86,7.48-5.07,9.84-.25,8.68,15Zm12.94-5.26-5.1,2.94a.53.53,0,0,1-.71-.19L47.73,19a.55.55,0,0,1,.2-.71L53,15.32a.55.55,0,0,1,.71.2l11.61,20.1A.55.55,0,0,1,65.15,36.33Z" transform="translate(-3.47 -12.02)"/></svg>