<?xml version="1.0" encoding="utf-8"?>
<!-- Generator: Adobe Illustrator 24.1.2, SVG Export Plug-In . SVG Version: 6.00 Build 0)  -->
<svg version="1.1" id="Capa_1" xmlns="http://www.w3.org/2000/svg" xmlns:xlink="http://www.w3.org/1999/xlink" x="0px" y="0px"
	 viewBox="0 0 72 72" style="enable-background:new 0 0 72 72;" xml:space="preserve">
<style type="text/css">
	.st0{fill:#242423;}
</style>
<g>
	<g id="_x38_5_x2C__Call_x2C__Support_x2C__ELearning_x2C__Signal_x2C__Online">
		<g>
			<path class="st0" d="M57.8,45.7c-0.5-0.4-1-0.8-1.4-1c-1.3-0.9-2.9-1.4-4.4-1.4c-1.3,0-2.3,0.4-3.2,1c-0.3,0.3-1.3,1.5-2.7,3.1
				l14.2,10c0.4,0.3,0.5,0.8,0.3,1.2c-0.1,0.3-0.4,0.4-0.6,0.4c-0.1,0-0.3,0-0.5-0.1L45.1,48.6c-1.3,1.4-2.6,2.9-3.6,4.2
				c-0.3,0.3-0.5,0.4-0.8,0.3c-3.7-0.9-8.5-4-12.7-8.2c-4.2-4.2-7.3-9-8.2-12.7c-0.1-0.3,0-0.6,0.3-0.8c1.2-1,2.7-2.3,4-3.5
				L13.9,13.1c-0.3-0.4-0.1-0.9,0.3-1.2c0.4-0.3,0.9-0.1,1.2,0.3l10,14.7c1.7-1.5,3.1-2.7,3.3-2.9c1.8-2.3,1-5.5-0.4-7.6L28,16.1
				c-1.8-2.7-6.8-10-9-11.5C18.2,4,17.1,3.6,16,3.6c-1.2,0-2.3,0.3-3.3,0.9c-1,0.6-6.8,6.4-7.4,7.2c-0.1,0.1-0.3,0.3-0.3,0.4
				c-0.1,0.3-0.3,0.4-0.4,0.5c-3.5,6.8-0.5,20.5,2.7,28c4,9.4,15.8,21.2,25.1,25.1c4.7,2.1,13.1,4.2,19.9,4.2c3.3,0,6-0.5,8.1-1.5
				c0.3-0.1,0.4-0.3,0.6-0.4c0.1-0.1,0.3-0.1,0.4-0.3c0.8-0.6,6.5-6.4,7.2-7.4c1.2-1.9,1.2-4.6,0-6.4C66.9,51.9,61,47.9,57.8,45.7z"
				/>
			<rect x="21" y="66.9" class="st0" width="3.2" height="3.2"/>
			<rect x="16.2" y="66.9" class="st0" width="3.2" height="3.2"/>
			<rect x="11.4" y="66.9" class="st0" width="3.2" height="3.2"/>
			<rect x="6.6" y="66.9" class="st0" width="3.2" height="3.2"/>
			<rect x="1.7" y="66.9" class="st0" width="3.2" height="3.2"/>
			<path class="st0" d="M9,57.2c0-2.2-1.8-4-4-4s-4,1.8-4,4c0,2.2,1.8,4,4,4S9,59.4,9,57.2z"/>
			<path class="st0" d="M68.3,6.7c1.8,0,3.2-1.4,3.2-3.2c0-1.8-1.4-3.2-3.2-3.2c-1.8,0-3.2,1.4-3.2,3.2C65.1,5.3,66.5,6.7,68.3,6.7z
				"/>
			<path class="st0" d="M38.8,25.8c4,0,7.2,3.2,7.2,7.2c0,0.4,0.4,0.8,0.8,0.8c0.4,0,0.8-0.4,0.8-0.8c0-4.9-4-8.9-8.8-8.9
				c-0.4,0-0.8,0.4-0.8,0.8C37.9,25.6,38.3,25.8,38.8,25.8z"/>
			<path class="st0" d="M38.8,17.9c8.3,0,15.1,6.8,15.1,15.1c0,0.4,0.4,0.8,0.8,0.8c0.4,0,0.8-0.4,0.8-0.8c0-9.2-7.6-16.8-16.8-16.8
				c-0.4,0-0.8,0.4-0.8,0.8C37.9,17.5,38.3,17.9,38.8,17.9z"/>
			<path class="st0" d="M38.8,9.9C51.6,9.9,62,20.3,62,33.1c0,0.4,0.4,0.8,0.8,0.8c0.4,0,0.8-0.4,0.8-0.8
				c0-13.6-11.2-24.8-24.8-24.8c-0.4,0-0.8,0.4-0.8,0.8C38,9.5,38.3,9.9,38.8,9.9z"/>
			<path class="st0" d="M38.8,0.3c-0.4,0-0.8,0.4-0.8,0.8c0,0.4,0.4,0.8,0.8,0.8C56,1.8,70,15.8,70,33c0,0.4,0.4,0.8,0.8,0.8
				c0.4,0,0.8-0.4,0.8-0.8C71.5,15,56.8,0.3,38.8,0.3z"/>
		</g>
	</g>
	<g id="Layer_1_00000008830640935909620970000013191755246843556507_">
	</g>
</g>
</svg>
