<?xml version="1.0" encoding="utf-8"?>
<!-- Generator: Adobe Illustrator 24.1.2, SVG Export Plug-In . SVG Version: 6.00 Build 0)  -->
<svg version="1.1" id="Capa_1" xmlns="http://www.w3.org/2000/svg" xmlns:xlink="http://www.w3.org/1999/xlink" x="0px" y="0px"
	 viewBox="0 0 72 72" style="enable-background:new 0 0 72 72;" xml:space="preserve">
<style type="text/css">
	.st0{fill:#242423;}
</style>
<g>
	<g>
		<g>
			<g id="_x39_7_x2C__Question_x2C__Faq_x2C__Problem_x2C__Solution">
				<g>
					<path class="st0" d="M36,0.7C17,0.7,1.5,16.1,1.5,35.1c0,19,15.5,34.5,34.5,34.5c19,0,34.5-15.5,34.5-34.5
						C70.5,16.1,55,0.7,36,0.7z M50.6,25c0,2-0.5,3.9-1.5,5.6c-1,1.7-2.7,3.7-5.3,6c-2.1,1.8-2.9,2.8-3.3,3.3
						c-0.5,0.6-0.9,1.4-1,2.2c-0.1,0.5-0.2,1.2-0.4,2.1c-0.1,1.7-1.6,3.1-3.3,3.1c-0.9,0-1.8-0.4-2.5-1.1c-0.6-0.7-1-1.6-0.9-2.5
						c0.1-1.5,0.4-3.4,0.7-4.4c0.5-1.2,1.2-2.5,2.2-3.7c0.7-0.9,2-2.1,3.9-3.8c1.7-1.6,2.9-2.8,3.4-3.7c0.5-0.9,0.7-1.7,0.7-2.8
						c0-1.8-0.7-3.4-2.2-4.9c-1.5-1.5-3.2-2.1-5.4-2.1c-2.1,0-3.8,0.6-5.2,2c-1,1-1.7,2.3-2.2,4c-0.5,1.5-1.8,2.6-3.3,2.6
						c-0.1,0-0.2,0-0.5,0c-1-0.1-2-0.7-2.5-1.6c-0.6-0.9-0.7-2-0.5-2.9c0.7-2.7,2.1-4.9,3.9-6.5c2.6-2.2,6-3.4,10.1-3.4
						c4.4,0,8,1.2,10.6,3.7C49.3,18.6,50.6,21.5,50.6,25z M39.2,54c0,2.1-1.7,3.8-3.8,3.8l0,0c-2.1,0-3.8-1.7-3.8-3.8
						c0-2.1,1.7-3.8,3.8-3.8C37.5,50.2,39.2,52,39.2,54z M36,65.1c-7.2,0-14-2.6-19.1-7c0,0-0.1,0-0.1-0.1l-0.1-0.1
						C10.2,52.5,6.1,44.2,6.1,35.1C6.1,18.7,19.4,5.2,36,5.2c0.4,0,0.7,0.4,0.7,0.7c0,0.4-0.4,0.7-0.7,0.7C20.3,6.7,7.7,19.4,7.7,35
						c0,5.2,1.4,9.9,3.8,14.1l11.7-14.6c0.2-0.4,0.7-0.4,1.1-0.1c0.4,0.2,0.4,0.7,0.1,1.1l-12,15.1c1.4,2.1,2.9,3.9,4.8,5.6l7.5-9.3
						c0.2-0.4,0.7-0.4,1.1-0.1c0.4,0.2,0.4,0.7,0.1,1.1l-7.6,9.4c4.9,3.9,11,6.3,17.7,6.3c15.7,0,28.3-12.8,28.3-28.3
						c0-1.8-0.1-3.6-0.5-5.4l-14.8,18c-0.1,0.1-0.4,0.2-0.6,0.2c-0.1,0-0.4,0-0.5-0.1c-0.4-0.2-0.4-0.7-0.1-1.1l15.8-19
						c-1.6-5.9-5-11.3-10.1-15.1c-0.4-0.2-0.4-0.7-0.1-1.1c0.2-0.4,0.7-0.4,1.1-0.1c7.4,5.8,11.5,14.4,11.5,23.6
						C65.9,51.6,52.4,65.1,36,65.1z"/>
					<path class="st0" d="M27,17c-1.6,1.5-2.8,3.4-3.4,5.8c-0.1,0.5-0.1,1.1,0.2,1.6c0.4,0.5,0.9,0.9,1.5,0.9c0.1,0,0.1,0,0.2,0
						c0.9,0,1.6-0.6,1.8-1.5c0.6-2,1.5-3.6,2.7-4.8c1.6-1.6,3.7-2.3,6.1-2.3c2.6,0,4.7,0.9,6.4,2.6c1.7,1.7,2.7,3.7,2.7,6
						c0,1.2-0.2,2.5-1,3.6c-0.6,1.1-1.8,2.3-3.7,4c-1.8,1.6-3.1,2.8-3.7,3.6c-0.9,1.1-1.6,2.2-2,3.2c-0.2,0.6-0.5,2.1-0.6,4
						c0,0.5,0.1,1,0.5,1.4c0.4,0.4,0.7,0.6,1.2,0.6c0.9,0,1.7-0.7,1.7-1.6c0.1-1,0.2-1.8,0.4-2.5c0.2-1,0.7-2,1.4-2.7
						c0.6-0.7,1.7-2,3.4-3.6c2.5-2.2,4.2-4,5-5.6c0.9-1.5,1.2-3.1,1.2-4.8c0-3.1-1.1-5.6-3.6-7.7c-2.3-2.1-5.5-3.2-9.6-3.2
						C32.3,14,29.3,15,27,17z"/>
					<path class="st0" d="M35.4,51.8c-1.2,0-2.2,1-2.2,2.2c0,1.2,1,2.2,2.2,2.2l0,0c1.2,0,2.2-1,2.2-2.2
						C37.6,52.8,36.6,51.8,35.4,51.8z"/>
				</g>
			</g>
			<g id="Layer_1_00000018224390074257409850000003415584553244934831_">
			</g>
		</g>
	</g>
</g>
</svg>
