<?xml version="1.0" encoding="utf-8"?>
<!-- Generator: Adobe Illustrator 24.1.2, SVG Export Plug-In . SVG Version: 6.00 Build 0)  -->
<svg version="1.1" id="Capa_1" xmlns="http://www.w3.org/2000/svg" xmlns:xlink="http://www.w3.org/1999/xlink" x="0px" y="0px"
	 viewBox="0 0 72 72" style="enable-background:new 0 0 72 72;" xml:space="preserve">
<style type="text/css">
	.st0{fill:#242423;}
</style>
<g>
	<g>
		<g>
			<g id="_x39_3_x2C__Globe_x2C__Internet_x2C__Link_x2C__Network_x2C__Server">
				<g>
					<path class="st0" d="M45.3,20.6h-8.6v6.9c2.6,0.1,5.1,0.6,7.4,1.6C44.8,26.4,45.2,23.6,45.3,20.6z"/>
					<path class="st0" d="M28.3,8.9c2.2,1,4.5,1.5,7,1.6V0.3c-2.1,0.4-4.1,2.2-5.7,5.5C29,6.7,28.6,7.7,28.3,8.9z"/>
					<path class="st0" d="M44.1,10.5c-2.4,1-4.9,1.5-7.4,1.6V19h8.6C45.2,16,44.8,13,44.1,10.5z"/>
					<path class="st0" d="M42.5,5.7c-1.6-3.1-3.6-5.1-5.7-5.5v10.2c2.5-0.1,4.7-0.6,7-1.6C43.3,7.7,43,6.7,42.5,5.7z"/>
					<path class="st0" d="M3.2,37.6c0,0.9,0.7,1.6,1.6,1.6c0.9,0,1.6-0.7,1.6-1.6c0-0.9-0.7-1.6-1.6-1.6C4,36,3.2,36.8,3.2,37.6z"/>
					<path class="st0" d="M43.8,34.4c-0.9,1.7-1.9,3.1-3,4.2c3.1-0.9,6-2.4,8.2-4.5c-1.2-1.1-2.6-2.1-4-2.9
						C44.7,32.4,44.3,33.4,43.8,34.4z"/>
					<path class="st0" d="M35.3,12.1c-2.6-0.1-5.1-0.6-7.3-1.6c-0.7,2.6-1.1,5.5-1.1,8.5h8.6v-6.9H35.3z"/>
					<path class="st0" d="M45.1,8.2c1.5-0.7,2.7-1.7,4-2.9c-2.4-2.1-5.1-3.7-8.2-4.5c1.1,1,2.1,2.5,3,4.2C44.3,6,44.7,7.1,45.1,8.2z
						"/>
					<path class="st0" d="M46.8,19h8.6c-0.2-4.9-2.1-9.2-5.2-12.5c-1.4,1.2-3,2.4-4.6,3.2C46.3,12.6,46.8,15.7,46.8,19z"/>
					<path class="st0" d="M55.4,20.6h-8.6c0,3.2-0.5,6.4-1.2,9.2c1.6,0.9,3.2,2,4.6,3.2C53.3,29.7,55.2,25.3,55.4,20.6z"/>
					<path class="st0" d="M65.5,33.8c0,1.2,1,2.4,2.4,2.4c1.2,0,2.4-1,2.4-2.4c0-1.2-1-2.4-2.4-2.4C66.6,31.4,65.5,32.4,65.5,33.8z"
						/>
					<path class="st0" d="M26.4,9.7c-1.6-0.9-3.2-2-4.6-3.2c-3.1,3.2-5,7.6-5.2,12.5h8.6C25.2,15.7,25.5,12.6,26.4,9.7z"/>
					<path class="st0" d="M22.8,34c2.4,2.1,5.1,3.7,8.2,4.5c-1.1-1-2.1-2.5-3-4.2c-0.5-1-0.9-2-1.2-3.1C25.4,32,24,32.9,22.8,34z"/>
					<path class="st0" d="M28.2,5.1C29,3.4,30,2,31.1,0.9c-3.1,0.9-6,2.4-8.2,4.5c1.2,1.1,2.6,2.1,4,2.9C27.2,7.1,27.7,6,28.2,5.1z"
						/>
					<path class="st0" d="M35.3,20.6h-8.6c0,3,0.5,6,1.1,8.5c2.4-1,4.9-1.5,7.4-1.6L35.3,20.6L35.3,20.6z"/>
					<path class="st0" d="M26.4,29.7c-0.7-2.9-1.2-6-1.2-9.2h-8.6c0.2,4.9,2.1,9.2,5.2,12.5C23.2,31.7,24.7,30.5,26.4,29.7z"/>
					<path class="st0" d="M61.7,19.7c0,2.6-0.4,5.1-1.1,7.6c-0.1,0.4,0.1,0.9,0.5,1c0.1,0,0.1,0,0.2,0c0.4,0,0.6-0.2,0.7-0.5
						c0.7-2.6,1.2-5.2,1.2-8c0-5.9-1.7-11.3-5.2-16.1c-0.2-0.4-0.7-0.4-1.1-0.1c-0.4,0.2-0.4,0.7-0.1,1.1
						C59.9,9,61.7,14.2,61.7,19.7z"/>
					<path class="st0" d="M56.9,35.9c0.1,0.1,0.2,0.1,0.5,0.1c0.2,0,0.5-0.1,0.6-0.4c0.7-1,1.4-2.1,2-3.2c0.2-0.4,0-0.9-0.4-1
						c-0.4-0.2-0.9,0-1,0.4c-0.5,1-1.2,2.1-1.9,3C56.6,35.1,56.6,35.6,56.9,35.9z"/>
					<path class="st0" d="M14.6,36.1c0.1,0,0.4,0,0.5-0.1c0.4-0.2,0.4-0.7,0.1-1.1c-3.2-4.4-4.9-9.6-4.9-15.1
						c0-5.5,1.7-10.7,4.9-15.1c0.2-0.4,0.1-0.9-0.1-1.1c-0.4-0.2-0.9-0.1-1.1,0.1C10.6,8.5,8.7,14,8.7,19.8c0,5.9,1.7,11.3,5.2,16.1
						C14.1,36,14.3,36.1,14.6,36.1z"/>
					<path class="st0" d="M66.4,4.1c0.9,0,1.6,0.7,1.6,1.6c0,0.9-0.7,1.6-1.6,1.6c-0.9,0-1.6-0.7-1.6-1.6
						C64.8,4.9,65.5,4.1,66.4,4.1z"/>
					<path class="st0" d="M4.1,10.4c0.9,0,1.6,0.7,1.6,1.6c0,0.9-0.7,1.6-1.6,1.6c-0.9,0-1.6-0.7-1.6-1.6
						C2.5,11.1,3.2,10.4,4.1,10.4z"/>
					<path class="st0" d="M69.5,54.8h-6.7v-7c0-0.4-0.4-0.7-0.7-0.7H36.7v-7.8c2.1-0.4,4.1-2.2,5.7-5.5c0.5-1,0.9-2,1.2-3.1
						c-2.2-1.1-4.5-1.6-7-1.7v9.7c0-0.4-0.4-0.7-0.7-0.7c-0.4,0-0.7,0.4-0.7,0.7v-9.7c-2.5,0.1-4.7,0.6-7,1.6
						c0.4,1.1,0.7,2.2,1.2,3.1c1.6,3.1,3.6,5.1,5.7,5.5V47H10c-0.4,0-0.7,0.4-0.7,0.7v7H2.5c-0.4,0-0.7,0.4-0.7,0.7v14.1
						c0,0.4,0.4,0.7,0.7,0.7h14.1c0.4,0,0.7-0.4,0.7-0.7v-14c0-0.4-0.4-0.7-0.7-0.7h-5.7v-6.2h24.4v6.2H29c-0.4,0-0.7,0.4-0.7,0.7
						v14.1c0,0.4,0.4,0.7,0.7,0.7h14c0.4,0,0.7-0.4,0.7-0.7V55.6c0-0.4-0.4-0.7-0.7-0.7h-6.2v-6.2h24.4v6.2h-5.7
						c-0.4,0-0.7,0.4-0.7,0.7v14.1c0,0.4,0.4,0.7,0.7,0.7h14.1c0.4,0,0.7-0.4,0.7-0.7V55.6C70.3,55.1,69.9,54.8,69.5,54.8z"/>
				</g>
			</g>
			<g id="Layer_1_1_">
			</g>
		</g>
	</g>
</g>
</svg>
