<?xml version="1.0" encoding="utf-8"?>
<!-- Generator: Adobe Illustrator 24.1.2, SVG Export Plug-In . SVG Version: 6.00 Build 0)  -->
<svg version="1.1" id="Capa_1" xmlns="http://www.w3.org/2000/svg" xmlns:xlink="http://www.w3.org/1999/xlink" x="0px" y="0px"
	 viewBox="0 0 72 72" style="enable-background:new 0 0 72 72;" xml:space="preserve">
<style type="text/css">
	.st0{fill:#242423;}
</style>
<g>
	<g id="_x38_4_x2C__Arrow_x2C__Target_x2C__Direction_x2C__Map_x2C__Route">
		<g>
			<path class="st0" d="M46.3,32.2c0-5.8-4.5-10.5-10.1-10.5c-5.6,0-10.1,4.7-10.1,10.5c0,4.1,2.2,7.9,5.8,9.6l2.9-4.1
				c-2.4-0.6-4.1-2.8-4.1-5.4c0-3.1,2.5-5.7,5.5-5.7c3,0,5.5,2.6,5.5,5.7c0,2.6-1.7,4.8-4.1,5.4l2.9,4.1
				C44.1,40.1,46.3,36.3,46.3,32.2z"/>
			<path class="st0" d="M52.5,32.2c0-9.3-7.3-16.9-16.3-16.9S20,22.9,20,32.2c0,6.2,3.2,11.9,8.5,14.9l2.7-4
				c-4-2.1-6.5-6.2-6.5-10.9c0-6.7,5.2-12.1,11.7-12.1c6.5,0,11.7,5.4,11.7,12.1c0,4.7-2.5,8.8-6.5,10.9l2.7,4
				C49.3,44.1,52.5,38.4,52.5,32.2z"/>
			<path class="st0" d="M36.2,28.2c-2.1,0-3.9,1.8-3.9,4c0,2.2,1.7,4,3.9,4c2.1,0,3.9-1.8,3.9-4C40.1,30,38.4,28.2,36.2,28.2z"/>
			<path class="st0" d="M13.9,70.7l22-11.8c0.1,0,0.2-0.1,0.4-0.1c0.1,0,0.2,0,0.4,0.1l22,11.8L36.2,38.4L13.9,70.7z"/>
			<path class="st0" d="M58.7,32.2c0-12.9-10.1-23.4-22.5-23.4S13.8,19.3,13.8,32.2c0,8.3,4.2,15.9,10.9,20.2l2.7-4
				c-5.6-3.4-9.1-9.4-9.1-16.1c0-10.2,8-18.6,17.9-18.6s17.9,8.3,17.9,18.6c0,6.7-3.5,12.9-9.1,16.1l2.7,4
				C54.6,48.1,58.7,40.4,58.7,32.2z"/>
			<path class="st0" d="M21.1,57.6l2.7-3.9c-7.2-4.5-11.7-12.7-11.7-21.4c0-13.8,10.8-25.1,24.1-25.1c13.3,0,24.1,11.2,24.1,25.1
				c0,8.8-4.5,16.9-11.7,21.4l2.7,3.9C59.7,52.2,65,42.5,65,32.3c0-16.5-12.8-30-28.7-30S7.5,15.8,7.5,32.2
				C7.5,42.5,12.6,52.1,21.1,57.6z"/>
			<path class="st0" d="M6.8,58.8c-2.1,0-3.9,1.8-3.9,4c0,2.2,1.7,4,3.9,4c2.1,0,3.9-1.8,3.9-4C10.6,60.6,8.9,58.8,6.8,58.8z"/>
			<path class="st0" d="M67.3,50.8c-2.1,0-3.9,1.8-3.9,4c0,2.2,1.7,4,3.9,4c2.1,0,3.9-1.8,3.9-4C71.2,52.6,69.4,50.8,67.3,50.8z"/>
			<path class="st0" d="M65,10.3c2.6,0,4.7-2.2,4.7-4.9S67.6,0.5,65,0.5c-2.6,0-4.7,2.2-4.7,4.9S62.5,10.3,65,10.3z"/>
			<path class="st0" d="M6.7,3.1c0.9,0,1.6,0.8,1.6,1.7c0,0.9-0.7,1.7-1.6,1.7c-0.9,0-1.6-0.8-1.6-1.7C5.1,3.9,5.8,3.1,6.7,3.1z"/>
			<path class="st0" d="M68.9,16c0.9,0,1.6,0.8,1.6,1.7c0,0.9-0.7,1.7-1.6,1.7c-0.9,0-1.6-0.8-1.6-1.7C67.3,16.8,68,16,68.9,16z"/>
			<path class="st0" d="M36.2,66c0.9,0,1.6,0.8,1.6,1.7c0,0.9-0.7,1.7-1.6,1.7c-0.9,0-1.6-0.8-1.6-1.7C34.6,66.8,35.4,66,36.2,66z"
				/>
			<path class="st0" d="M3.7,49.9c0.9,0,1.6,0.8,1.6,1.7c0,0.9-0.7,1.7-1.6,1.7c-0.9,0-1.6-0.8-1.6-1.7C2.1,50.6,2.8,49.9,3.7,49.9z
				"/>
		</g>
	</g>
	<g id="Layer_1_00000069392191431811460150000009357305206907459739_">
	</g>
</g>
</svg>
