<?xml version="1.0" encoding="utf-8"?>
<!-- Generator: Adobe Illustrator 24.1.2, SVG Export Plug-In . SVG Version: 6.00 Build 0)  -->
<svg version="1.1" id="Capa_1" xmlns="http://www.w3.org/2000/svg" xmlns:xlink="http://www.w3.org/1999/xlink" x="0px" y="0px"
	 viewBox="0 0 72 72" style="enable-background:new 0 0 72 72;" xml:space="preserve">
<style type="text/css">
	.st0{fill:#242423;}
</style>
<g>
	<g id="_x38_3_x2C__Cloud_x2C__Hosting_x2C__Server">
		<g>
			<path class="st0" d="M52.2,27.5H23.5v8h28.7V27.5z M29,33.1h-3.2V30H29V33.1z M33.8,33.1h-3.2V30h3.2V33.1z M38.7,33.1h-3.2V30
				h3.2V33.1z"/>
			<path class="st0" d="M69.3,30.1c0-6.5-5.4-11.7-11.9-11.7h-0.1h-0.1c-0.3,0-0.5-0.1-0.6-0.3c-0.1-0.1-0.3-0.4-0.1-0.6
				c0.1-0.8,0.3-1.5,0.3-2.4c0-7.8-6.5-14.2-14.4-14.2c-5.5,0-10.5,3.1-13,7.9c-0.1,0.4-0.6,0.5-1,0.4c-1.1-0.5-2.4-0.8-3.8-0.8
				c-5,0-9.1,3.8-9.3,8.5c1.7,0,5.1,0.4,7.8,3.4c0.3,0.4,0.3,0.9-0.1,1.1c-0.1,0.1-0.4,0.3-0.5,0.3c-0.3,0-0.4-0.1-0.6-0.3
				c-2.5-2.9-6.1-2.9-7.1-2.8h-0.1c-5.5,1.1-9.6,5.9-9.6,11.5c0,0.1,0,0.3,0,0.4c0.1,6.4,5.6,11.5,12,11.5h5.1v-0.8
				c0-0.4,0.4-0.8,0.8-0.8h4v-3.2h-4c-0.4,0-0.8-0.4-0.8-0.8V27c0-0.4,0.4-0.8,0.8-0.8H53c0.4,0,0.8,0.4,0.8,0.8v9.6
				c0,0.4-0.4,0.8-0.8,0.8h-4v3.2h4c0.4,0,0.8,0.4,0.8,0.8v0.8h4.3C64.3,41.7,69.3,36.5,69.3,30.1z M50,16.4L50,16.4
				c-0.5,0-0.8-0.4-0.8-0.8c-0.3-6.6-6-8-6-8c-0.4-0.1-0.6-0.5-0.6-0.9c0.1-0.4,0.5-0.6,0.9-0.6c0.1,0,1.8,0.4,3.6,1.8
				c1.7,1.3,3.6,3.7,3.7,7.8C50.8,16.1,50.5,16.3,50,16.4z"/>
			<rect x="28.2" y="37.1" class="st0" width="19.1" height="3.2"/>
			<rect x="28.2" y="51.5" class="st0" width="19.1" height="3.2"/>
			<path class="st0" d="M23.5,49.8h28.7v-8H23.5V49.8z M35.4,44.2h3.2v3.2h-3.2V44.2z M30.6,44.2h3.2v3.2h-3.2V44.2z M25.8,44.2H29
				v3.2h-3.2V44.2z"/>
			<path class="st0" d="M68.1,5.2c-1.8,0-3.2,1.4-3.2,3.2c0,1.8,1.4,3.2,3.2,3.2c1.8,0,3.2-1.4,3.2-3.2C71.3,6.6,69.9,5.2,68.1,5.2z
				"/>
			<path class="st0" d="M7.6,4.5c0-1.3-1-2.4-2.4-2.4s-2.4,1-2.4,2.4s1.1,2.4,2.4,2.4C6.4,6.9,7.6,5.7,7.6,4.5z"/>
			<path class="st0" d="M23.5,64.2h3.2v4.6c0,0.4,0.4,0.8,0.8,0.8c0.4,0,0.8-0.4,0.8-0.8v-4.6h19.1v4.6c0,0.4,0.4,0.8,0.8,0.8
				c0.4,0,0.8-0.4,0.8-0.8v-4.6h3.2v-8H23.5V64.2z M35.4,58.6h3.2v3.2h-3.2V58.6z M30.6,58.6h3.2v3.2h-3.2V58.6z M25.8,58.6H29v3.2
				h-3.2V58.6z"/>
			<path class="st0" d="M68.9,61.1h-8.8v-12c0-0.4-0.4-0.8-0.8-0.8c-0.4,0-0.8,0.4-0.8,0.8v12.7c0,0.4,0.4,0.8,0.8,0.8h9.6
				c0.4,0,0.8-0.4,0.8-0.8C69.7,61.3,69.3,61.1,68.9,61.1z"/>
			<path class="st0" d="M16.4,48.3c-0.4,0-0.8,0.4-0.8,0.8v12H6.8c-0.4,0-0.8,0.4-0.8,0.8c0,0.4,0.4,0.8,0.8,0.8h9.6
				c0.4,0,0.8-0.4,0.8-0.8V49.1C17.1,48.6,16.8,48.3,16.4,48.3z"/>
		</g>
	</g>
	<g id="Layer_1_00000009579979046808324580000013020892677733774242_">
	</g>
</g>
</svg>
