<?xml version="1.0" encoding="utf-8"?>
<!-- Generator: Adobe Illustrator 24.1.2, SVG Export Plug-In . SVG Version: 6.00 Build 0)  -->
<svg version="1.1" id="Capa_1" xmlns="http://www.w3.org/2000/svg" xmlns:xlink="http://www.w3.org/1999/xlink" x="0px" y="0px"
	 viewBox="0 0 72 72" style="enable-background:new 0 0 72 72;" xml:space="preserve">
<style type="text/css">
	.st0{fill:#242423;}
</style>
<g>
	<g id="_x39_5_x2C__Setting_x2C__Configure_x2C__Cogwheel_x2C__Server">
		<g>
			<path class="st0" d="M36.5,30c3,0,5.5-2.5,5.5-5.5s-2.5-5.5-5.5-5.5c-3,0-5.5,2.5-5.5,5.5C31,27.7,33.5,30,36.5,30z"/>
			<path class="st0" d="M70.2,56.1h-6.7v-7c0-0.4-0.4-0.7-0.7-0.7H39.2h-0.1h-0.9l1.4-6.3c0.1-0.2,0.2-0.5,0.6-0.6
				c1.9-0.4,3.7-1.2,5.5-2.2c0.2-0.1,0.6-0.1,0.9,0l5.5,3.5l2.4-2.4l-3.5-5.6c-0.1-0.2-0.1-0.6,0-0.9c1.1-1.7,1.9-3.5,2.2-5.5
				c0.1-0.2,0.2-0.5,0.6-0.6l6.3-1.4v-3.5l-6.3-1.4c-0.2-0.1-0.5-0.2-0.6-0.6c-0.4-1.9-1.1-3.7-2.2-5.5c-0.1-0.2-0.1-0.6,0-0.9
				L54.4,9l-2.4-2.4l-5.5,3.5c-0.2,0.1-0.6,0.1-0.9,0c-1.6-1-3.5-1.9-5.5-2.2c-0.2-0.1-0.5-0.2-0.6-0.6l-1.4-6.3h-3.5l-1.4,6.3
				c-0.1,0.2-0.2,0.5-0.6,0.6c-2,0.5-3.7,1.2-5.5,2.2c-0.2,0.1-0.6,0.1-0.9,0l-5.5-3.5l-2.4,2.5l3.5,5.5c0.1,0.2,0.1,0.6,0,0.9
				c-1.1,1.7-1.9,3.5-2.2,5.5c-0.1,0.2-0.2,0.5-0.6,0.6l-6.3,1.4v3.5l6.3,1.4c0.2,0.1,0.5,0.2,0.6,0.6c0.4,1.9,1.2,3.7,2.2,5.5
				c0.1,0.2,0.1,0.6,0,0.9l-3.5,5.4l2.4,2.4l5.5-3.5c0.2-0.1,0.6-0.1,0.9,0c1.7,1.1,3.5,1.9,5.5,2.2c0.2,0.1,0.5,0.2,0.6,0.6
				l1.4,6.3H10.9c-0.4,0-0.7,0.4-0.7,0.7v7H3.4c-0.4,0-0.7,0.4-0.7,0.7v14.1c0,0.4,0.4,0.7,0.7,0.7h13.9c0.4,0,0.7-0.4,0.7-0.7V56.8
				c0-0.4-0.4-0.7-0.7-0.7h-5.7v-6.2h24.2v6.2h-6c-0.4,0-0.7,0.4-0.7,0.7v14.1c0,0.4,0.4,0.7,0.7,0.7h14.1c0.4,0,0.7-0.4,0.7-0.7
				V56.8c0-0.4-0.4-0.7-0.7-0.7h-6.6v-6.2h1.9h0.1h22.7v6.2h-5.7c-0.4,0-0.7,0.4-0.7,0.7v14.1c0,0.4,0.4,0.7,0.7,0.7h14.1
				c0.4,0,0.7-0.4,0.7-0.7V56.8C71,56.4,70.6,56.1,70.2,56.1z M36.5,11.4c7.3,0,13.2,6,13.2,13.3c0,0.4-0.4,0.7-0.7,0.7
				c-0.4,0-0.7-0.4-0.7-0.7C48.2,18.2,43,13,36.5,13c-0.4,0-0.7-0.4-0.7-0.7C35.8,11.9,36,11.4,36.5,11.4z M36.5,17.6
				c3.9,0,7,3.1,7,7s-3.1,7-7,7c-3.9,0-7-3.1-7-7C29.4,20.7,32.6,17.6,36.5,17.6z M36.5,37.9c-7.3,0-13.3-6-13.3-13.2
				c0-0.4,0.4-0.7,0.7-0.7c0.4,0,0.7,0.4,0.7,0.7c0,6.5,5.2,11.7,11.7,11.7c0.4,0,0.7,0.4,0.7,0.7C37.1,37.5,36.9,37.9,36.5,37.9z"
				/>
			<path class="st0" d="M65.3,24.7c0,6.5-2.1,12.6-6.1,17.7c-0.2,0.4-0.2,0.9,0.1,1.1c0.1,0.1,0.4,0.1,0.5,0.1
				c0.2,0,0.5-0.1,0.6-0.2c4.2-5.4,6.5-11.8,6.5-18.7c0-6.6-2.1-12.8-6-18.1c-0.2-0.4-0.7-0.4-1.1-0.1c-0.4,0.2-0.4,0.7-0.1,1.1
				C63.3,12.5,65.3,18.5,65.3,24.7z"/>
			<path class="st0" d="M13.2,43.6c0.1,0,0.4,0,0.5-0.1c0.4-0.2,0.4-0.7,0.1-1.1c-4-5.1-6.1-11.2-6.1-17.7c0-6.2,2-12.2,5.7-17.2
				c0.2-0.4,0.1-0.9-0.1-1.1c-0.4-0.2-0.9-0.1-1.1,0.1c-4.1,5.4-6.1,11.6-6.1,18.2c0,6.8,2.2,13.3,6.5,18.7
				C12.7,43.5,13,43.6,13.2,43.6z"/>
			<path class="st0" d="M7.2,43.6c0-1.7-1.4-3.1-3.1-3.1c-1.7,0-3.1,1.4-3.1,3.1c0,1.7,1.4,3.1,3.1,3.1C5.9,46.7,7.2,45.3,7.2,43.6z
				"/>
			<path class="st0" d="M67.9,6.3c1.7,0,3.1-1.4,3.1-3.1C71,1.4,69.6,0,67.9,0c-1.7,0-3.1,1.4-3.1,3.1C64.8,4.9,66.1,6.3,67.9,6.3z"
				/>
		</g>
	</g>
	<g id="Layer_1_00000044878247672256240840000007547918223869805960_">
	</g>
</g>
</svg>
