<svg id="Capa_1" data-name="Capa 1" xmlns="http://www.w3.org/2000/svg" viewBox="0 0 51 44.88"><defs><style>.cls-1,.cls-2{fill:#d6ffdf;}.cls-2,.cls-4{fill-rule:evenodd;}.cls-3,.cls-4{fill:#a0cf00;}.cls-5{fill:#0d0d0f;}</style></defs><circle class="cls-1" cx="28.86" cy="24.58" r="19.73" transform="matrix(0.99, -0.15, 0.15, 0.99, -10.41, 3.1)"/><path class="cls-2" d="M35.6,16.28c-9.41,6.77-15.51,16-17.43,24.88A19.73,19.73,0,0,0,43.66,11.54,50.08,50.08,0,0,0,35.6,16.28Z" transform="translate(-7.03 -1.54)"/><circle class="cls-3" cx="21.83" cy="23.04" r="6.25"/><path class="cls-4" d="M32,19.16a46.82,46.82,0,0,0-8.14,9.12A6.25,6.25,0,1,0,32,19.16Z" transform="translate(-7.03 -1.54)"/><path class="cls-5" d="M57.2,7.11l-3.62-.8.06-3.66a1,1,0,0,0-.22-.71,1.05,1.05,0,0,0-1.49-.17L47.39,5.36a1.06,1.06,0,0,0-.4.81L46.94,9.5l-1.48,1.08A21.82,21.82,0,1,0,47.21,13l1.36-1,3.6.78a1.06,1.06,0,0,0,.92-.19L57.63,9a1.15,1.15,0,0,0,.38-.6A1.06,1.06,0,0,0,57.2,7.11ZM47.63,24.63a18.81,18.81,0,1,1-4.57-12.29L40,14.62A15,15,0,1,0,41.71,17l3.1-2.27A18.66,18.66,0,0,1,47.63,24.63Zm-20,.88a1.47,1.47,0,0,0,2.06.32L34,22.64a5.5,5.5,0,0,1,.37,2,5.58,5.58,0,1,1-5.58-5.58,5.51,5.51,0,0,1,3.46,1.21l-4.33,3.18A1.47,1.47,0,0,0,27.62,25.51Zm1.19-9.42a8.54,8.54,0,1,0,8.54,8.54,8.41,8.41,0,0,0-.88-3.78l2.84-2.08a12.06,12.06,0,1,1-1.76-2.39l-2.83,2.08A8.53,8.53,0,0,0,28.81,16.09Z" transform="translate(-7.03 -1.54)"/></svg>