<?xml version="1.0" encoding="utf-8"?>
<!-- Generator: Adobe Illustrator 24.1.2, SVG Export Plug-In . SVG Version: 6.00 Build 0)  -->
<svg version="1.1" id="Capa_1" xmlns="http://www.w3.org/2000/svg" xmlns:xlink="http://www.w3.org/1999/xlink" x="0px" y="0px"
	 viewBox="0 0 72 72" style="enable-background:new 0 0 72 72;" xml:space="preserve">
<style type="text/css">
	.st0{fill:#242423;}
</style>
<g>
	<path class="st0" d="M62.2,52.7c-1.9-3.1-8.1-6.6-18.2-10.3l-0.7-6.5c3.7-2.9,6.2-7.8,7-13.4c-0.8,0.2-1.6,0.4-2.7,0.5
		c-0.9,4.8-3.2,9-6.4,11.3c-0.4,0.3-0.6,0.7-0.5,1.2l0.7,7.2c-0.2,0.1-0.3,0.2-0.5,0.3c-0.1,0.1-0.3,0.1-0.4,0.2
		c-0.4,0.2-0.8,0.3-1.2,0.5c-0.1,0-0.2,0.1-0.2,0.1c-2,0.6-4.2,0.6-6.3,0c-0.1,0-0.2-0.1-0.3-0.1c-0.4-0.1-0.8-0.3-1.1-0.4
		c-0.1-0.1-0.3-0.1-0.4-0.2c-0.2-0.1-0.3-0.2-0.5-0.3l0.7-7.2c0-0.5-0.2-0.9-0.5-1.2c-3.2-2.2-5.5-6.4-6.4-11.3
		c-1-0.2-1.9-0.3-2.7-0.5c0.8,5.7,3.3,10.5,7,13.4L28,42.4c-10.1,3.7-16.2,7.2-18.2,10.3c-2.4,3.9-0.4,16.5-0.2,17.9l0.2,1.1h52.3
		l0.2-1.1C62.6,69.1,64.6,56.6,62.2,52.7z M24.1,54.9l-2.6-7.1c2.2-1,4.7-2,7.4-3c0,0,0.1,0,0.1,0c0.5,0.3,1,0.6,1.5,0.8
		c0,0,0,0,0,0c1.7,0.7,3.5,1.1,5.4,1.1c1.9,0,3.7-0.4,5.4-1.1c0,0,0,0,0.1,0c0.5-0.2,1-0.5,1.5-0.8c0,0,0.1,0,0.1,0
		c2.8,1,5.3,2,7.4,3l-2.6,7.1H24.1z M12,54c0.8-1.2,2.6-2.7,5.4-4.2L20,57v12.1h-8C11.2,64,10.6,56.2,12,54z M60,69.1h-8V57l2.6-7.1
		c2.8,1.5,4.6,3,5.4,4.2C61.4,56.2,60.8,64,60,69.1z"/>
	<path class="st0" d="M36,21.2c8.9,0,16-1,16-2.3c0-0.3-0.4-0.6-1-0.8v-2.7c0-8.3-6.7-15-15-15c-8.3,0-15,6.7-15,15v2.7
		c-0.6,0.3-1,0.5-1,0.8C20,20.1,27.1,21.2,36,21.2z"/>
</g>
</svg>
