<?xml version="1.0" encoding="utf-8"?>
<!-- Generator: Adobe Illustrator 24.1.2, SVG Export Plug-In . SVG Version: 6.00 Build 0)  -->
<svg version="1.1" id="Capa_1" xmlns="http://www.w3.org/2000/svg" xmlns:xlink="http://www.w3.org/1999/xlink" x="0px" y="0px"
	 viewBox="0 0 72 72" style="enable-background:new 0 0 72 72;" xml:space="preserve">
<style type="text/css">
	.st0{fill:#242423;}
</style>
<g>
	<g id="_x39_2_x2C__Speed_test_x2C__Dashboard_x2C__Performance_x2C__Speedometer_x2C__Website">
		<g>
			<path class="st0" d="M20,16.4c4.3,0,7.9-3.5,7.9-7.9c0-4.4-3.5-7.9-7.9-7.9s-7.9,3.5-7.9,7.9C12.1,12.9,15.6,16.4,20,16.4z
				 M15.7,7.5c0.4-0.3,0.9,0,1,0.4l1,2.1l5.8-2.8c0.4-0.3,0.9,0,1,0.4c0.3,0.4,0,0.9-0.4,1l-6.4,3.1c-0.1,0-0.3,0.1-0.4,0.1
				c-0.3,0-0.6-0.1-0.8-0.4l-1.4-2.8C15.1,8.1,15.3,7.6,15.7,7.5z"/>
			<path class="st0" d="M36.3,43.4c-0.8,0-1.4,0.6-1.4,1.4c0,0.7,0.6,1.2,1.4,1.2c0.7,0,1.2-0.6,1.2-1.2
				C37.6,44,37.1,43.4,36.3,43.4z"/>
			<path class="st0" d="M9,23.5c0-0.4,0.4-0.8,0.8-0.8h53.1c0.4,0,0.8,0.4,0.8,0.8v36.8h4.8V22.7c0-2.5-2.1-4.6-4.6-4.6H9
				c-2.5,0-4.6,2.1-4.6,4.6v37.5h4.8V23.5H9z"/>
			<path class="st0" d="M16.8,28.9c-0.9,0-1.6,0.8-1.6,1.6c0,0.9,0.8,1.6,1.6,1.6c0.9,0,1.6-0.8,1.6-1.6
				C18.5,29.6,17.7,28.9,16.8,28.9z"/>
			<path class="st0" d="M55.9,55.5c0.9,0,1.6-0.8,1.6-1.6c0-0.9-0.8-1.6-1.6-1.6c-0.9,0-1.6,0.8-1.6,1.6
				C54.4,54.7,55,55.5,55.9,55.5z"/>
			<path class="st0" d="M69.2,61.7H63H42.6c-0.4,0-0.8-0.4-0.8-0.8c0-0.4,0.4-0.7,0.8-0.7h19.5v-36H10.6v36h19.5
				c0.4,0,0.8,0.4,0.8,0.7c0,0.4-0.4,0.8-0.8,0.8H9.8H3.6H1.3c0.4,3.5,3.4,6.3,7,6.3h56.3c3.6,0,6.6-2.8,7-6.3H69.2z M59,53.9
				c0,1.8-1.4,3.1-3.1,3.1s-3.1-1.4-3.1-3.1c0-1.8,1.4-3.1,3.1-3.1S59,52.1,59,53.9z M53.6,31.2c0.9,0,1.6,0.7,1.6,1.6
				c0,0.9-0.8,1.6-1.6,1.6c-0.9,0-1.6-0.8-1.6-1.6C52,32,52.7,31.2,53.6,31.2z M16,56.2c-0.9,0-1.6-0.7-1.6-1.6
				c0-0.9,0.8-1.6,1.6-1.6c0.9,0,1.6,0.7,1.6,1.6C17.6,55.5,16.8,56.2,16,56.2z M16.8,33.6c-1.8,0-3.1-1.4-3.1-3.1
				c0-1.8,1.4-3.1,3.1-3.1s3.1,1.4,3.1,3.1C20,32.2,18.6,33.6,16.8,33.6z M25.2,55.5c-0.2,0-0.4-0.1-0.6-0.3
				c-0.8-0.7-1.4-1.6-1.9-2.5c0,0,0,0,0-0.1l0,0c-1.4-2.4-2.1-5.1-2.1-7.9c0-2.9,0.7-5.5,2.1-7.9l0,0l0,0c1.4-2.4,3.4-4.4,5.8-5.8
				l0,0l0,0c2.4-1.4,5-2.1,7.9-2.1c2.9,0,5.5,0.8,7.9,2.1l0,0l0,0c2.4,1.4,4.4,3.4,5.8,5.8l0,0l0,0c1.4,2.4,2.1,5,2.1,7.9
				c0,2.8-0.7,5.5-2.1,7.9l0,0l0,0c-0.5,0.9-1.1,1.8-1.9,2.6c-0.1,0.1-0.4,0.3-0.6,0.3H25.2L25.2,55.5z"/>
			<path class="st0" d="M54.4,16.4c4.3,0,7.9-3.5,7.9-7.9c0-4.4-3.5-7.9-7.9-7.9s-7.9,3.5-7.9,7.9C46.5,12.9,50,16.4,54.4,16.4z
				 M50.6,5.8c-0.3-0.3-0.3-0.7,0-1.1c0.3-0.3,0.8-0.3,1.1,0l2.6,2.6L57,4.7c0.3-0.3,0.8-0.3,1.1,0c0.3,0.3,0.3,0.8,0,1.1l-2.6,2.6
				l2.6,2.6c0.3,0.3,0.3,0.8,0,1.1c-0.1,0.1-0.4,0.3-0.5,0.3c-0.1,0-0.4-0.1-0.5-0.3l-2.6-2.6l-2.6,2.6c-0.1,0.1-0.4,0.3-0.5,0.3
				c-0.1,0-0.4-0.1-0.5-0.3c-0.3-0.3-0.3-0.8,0-1.1l2.6-2.6L50.6,5.8z"/>
			<path class="st0" d="M45.7,51c-0.4-0.3-0.5-0.7-0.3-1.1c0.3-0.4,0.8-0.5,1.1-0.3l2.6,1.5c0.9-1.8,1.4-3.6,1.5-5.6h-3.1
				c-0.4,0-0.8-0.4-0.8-0.7c0-0.4,0.4-0.8,0.8-0.8h3c-0.1-2-0.6-3.9-1.5-5.6l-2.6,1.5C46.4,40,46.2,40,46.1,40
				c-0.3,0-0.5-0.1-0.6-0.4c-0.3-0.4-0.1-0.9,0.3-1.1l2.6-1.5c-1.1-1.6-2.5-3-4.1-4.1l-1.6,2.5c-0.1,0.2-0.4,0.4-0.6,0.4
				c-0.1,0-0.3,0-0.4-0.1c-0.4-0.2-0.5-0.7-0.3-1.1l1.5-2.6c-1.8-0.9-3.6-1.4-5.6-1.5v3c0,0.4-0.4,0.8-0.8,0.8
				c-0.4,0-0.8-0.4-0.8-0.8v-3c-2,0.1-3.9,0.6-5.6,1.5l1.5,2.6c0.3,0.4,0.1,0.9-0.3,1.1c-0.1,0.1-0.3,0.1-0.4,0.1
				c-0.3,0-0.5-0.1-0.6-0.4l-1.5-2.6c-1.6,1.1-3,2.5-4.1,4.1l2.6,1.5c0.4,0.3,0.5,0.8,0.3,1.1c-0.1,0.3-0.4,0.4-0.6,0.4
				c-0.1,0-0.3,0-0.4-0.1L24,38.2c-0.9,1.8-1.4,3.6-1.5,5.6h2.6c0.4,0,0.8,0.4,0.8,0.8c0,0.4-0.4,0.7-0.8,0.7h-3
				c0.1,2,0.6,3.9,1.5,5.6l2.6-1.5c0.4-0.2,0.9-0.1,1.1,0.2c0.3,0.4,0.1,0.9-0.3,1.1l-2.6,1.5c0.4,0.5,0.6,1,1.1,1.5h21.6
				c0.4-0.5,0.7-1,1.1-1.5L45.7,51z M36.3,47.6c-1.6,0-2.9-1.2-2.9-2.9c0-1.4,0.9-2.4,2.1-2.8v-3.4c0-0.4,0.4-0.8,0.8-0.8
				c0.4,0,0.7,0.4,0.7,0.8v3.3c1.3,0.4,2.1,1.5,2.1,2.8C39.2,46.2,38,47.6,36.3,47.6z"/>
		</g>
	</g>
	<g id="Layer_1_00000001643087750806101940000016567204460466196130_">
	</g>
</g>
</svg>
